<?xml version="1.0" encoding="UTF-8" standalone="no"?>
<!-- Created with Inkscape (http://www.inkscape.org/) -->

<svg
   xmlns:dc="http://purl.org/dc/elements/1.1/"
   xmlns:cc="http://creativecommons.org/ns#"
   xmlns:rdf="http://www.w3.org/1999/02/22-rdf-syntax-ns#"
   xmlns:svg="http://www.w3.org/2000/svg"
   xmlns="http://www.w3.org/2000/svg"
   xmlns:sodipodi="http://sodipodi.sourceforge.net/DTD/sodipodi-0.dtd"
   xmlns:inkscape="http://www.inkscape.org/namespaces/inkscape"
   width="40mm"
   height="40mm"
   viewBox="0 0 40 40"
   version="1.1"
   id="svg4635"
   inkscape:version="0.92.4 (5da689c313, 2019-01-14)"
   sodipodi:docname="logo.svg">
  <defs
     id="defs4629" />
  <sodipodi:namedview
     id="base"
     pagecolor="#ffffff"
     bordercolor="#666666"
     borderopacity="1.0"
     inkscape:pageopacity="0.0"
     inkscape:pageshadow="2"
     inkscape:zoom="5.6"
     inkscape:cx="81.619279"
     inkscape:cy="65.485389"
     inkscape:document-units="mm"
     inkscape:current-layer="g5187"
     showgrid="false"
     inkscape:window-width="2560"
     inkscape:window-height="1406"
     inkscape:window-x="-11"
     inkscape:window-y="-11"
     inkscape:window-maximized="1" />
  <metadata
     id="metadata4632">
    <rdf:RDF>
      <cc:Work
         rdf:about="">
        <dc:format>image/svg+xml</dc:format>
        <dc:type
           rdf:resource="http://purl.org/dc/dcmitype/StillImage" />
        <dc:title />
      </cc:Work>
    </rdf:RDF>
  </metadata>
  <g
     inkscape:label="Calque 1"
     inkscape:groupmode="layer"
     id="layer1"
     transform="translate(0,-257)">
    <g
       id="g5187"
       transform="translate(-72.449517,126.74356)"
       inkscape:export-xdpi="246.5"
       inkscape:export-ydpi="246.5">
      <path
         inkscape:connector-curvature="0"
         id="path841-6"
         d="m 105.93896,132.76202 -0.0522,0.0264 c -0.0822,0.0417 -0.10536,0.0832 -0.12196,0.21755 -0.008,0.0606 -0.0167,0.1358 -0.0207,0.16744 l -0.007,0.0579 -0.12041,0.0408 c -0.0663,0.0226 -0.17246,0.0676 -0.23616,0.0997 l -0.11578,0.0584 -0.12247,-0.0982 c -0.0673,-0.0538 -0.1367,-0.10339 -0.154,-0.11059 -0.0418,-0.0174 -0.12114,-0.0167 -0.16484,0.001 -0.0445,0.0186 -0.41214,0.38066 -0.44804,0.44131 -0.0198,0.0342 -0.0258,0.0562 -0.0258,0.10181 -2e-5,0.0711 0.01,0.0885 0.13539,0.24649 0.0511,0.0644 0.093,0.12098 0.093,0.12558 0,0.005 -0.0215,0.0536 -0.0475,0.10904 -0.0245,0.052 -0.0576,0.13769 -0.078,0.19895 0.33722,0.16333 0.65843,0.34241 0.96273,0.53795 0.0128,-0.20522 0.0963,-0.39271 0.24598,-0.53433 0.159,-0.1505 0.3425,-0.22453 0.56121,-0.22583 0.1332,-7.9e-4 0.19955,0.0115 0.31264,0.0568 0.10864,0.0436 0.19909,0.10566 0.28629,0.19689 0.22659,0.23724 0.29079,0.57099 0.16795,0.8723 -0.0876,0.21496 -0.27254,0.38211 -0.49093,0.45992 0.37151,0.33483 0.70797,0.7016 1.01027,1.09812 0.0402,0.003 0.0842,-0.001 0.11421,-0.0171 0.0146,-0.008 0.12104,-0.10937 0.23668,-0.22583 0.1835,-0.1848 0.21169,-0.21734 0.22169,-0.25528 0.0242,-0.0913 0.006,-0.13461 -0.12661,-0.30075 -0.0532,-0.0667 -0.0965,-0.12468 -0.0966,-0.12868 -1e-4,-0.004 0.0253,-0.0607 0.0568,-0.12609 0.0315,-0.0654 0.0719,-0.16263 0.0894,-0.21652 l 0.0315,-0.0982 0.1695,-0.0202 c 0.20316,-0.0243 0.24026,-0.0409 0.28526,-0.12713 l 0.0269,-0.0517 v -0.28267 c 0,-0.16934 -0.005,-0.29765 -0.0109,-0.31987 -0.0123,-0.0442 -0.0652,-0.10586 -0.10903,-0.12661 -0.0173,-0.008 -0.10319,-0.0238 -0.19069,-0.0346 -0.0875,-0.0108 -0.16136,-0.0228 -0.16536,-0.0269 -0.003,-0.004 -0.0208,-0.0516 -0.0382,-0.1049 -0.0174,-0.0533 -0.0556,-0.14802 -0.0853,-0.21084 l -0.0543,-0.11421 0.0289,-0.0362 c 0.13937,-0.17397 0.17555,-0.22638 0.18655,-0.26871 0.014,-0.0551 0.007,-0.1042 -0.0233,-0.15607 -0.0331,-0.0573 -0.39969,-0.41739 -0.44339,-0.43563 -0.0485,-0.0203 -0.13131,-0.0193 -0.17311,0.002 -0.0185,0.009 -0.0846,0.0578 -0.14728,0.10749 l -0.11421,0.0899 -0.11162,-0.0553 c -0.0614,-0.0305 -0.16527,-0.0738 -0.23047,-0.0961 l -0.11886,-0.0403 -0.0165,-0.14987 c -0.02,-0.17607 -0.0344,-0.22061 -0.0858,-0.26458 -0.0603,-0.0516 -0.0851,-0.0548 -0.39429,-0.0548 z m 1.56942,4.146 c -0.0122,-9.3e-4 -0.0254,3.1e-4 -0.0362,-0.003 -0.0269,-0.007 -0.0879,-0.0481 -0.18242,-0.12196 l -0.14211,-0.1111 -0.0501,0.0284 c -0.0632,0.0354 -0.24519,0.10951 -0.32194,0.13126 -0.032,0.009 -0.0622,0.0201 -0.0667,0.0243 -0.004,0.004 -0.0165,0.0811 -0.0269,0.17104 -0.0273,0.23456 -0.0617,0.29537 -0.18294,0.32298 -0.0538,0.0122 -0.53349,0.0118 -0.58601,-5.3e-4 h -5.3e-4 c -0.0739,-0.0173 -0.12635,-0.0647 -0.14987,-0.13487 -0.006,-0.0187 -0.0203,-0.10734 -0.031,-0.1974 -0.0198,-0.16726 -0.0227,-0.18087 -0.0393,-0.18087 -0.0215,0 -0.20447,-0.073 -0.29352,-0.11731 -0.0526,-0.0261 -0.099,-0.0475 -0.10387,-0.0475 -0.005,0 -0.0695,0.0482 -0.14366,0.10697 -0.16691,0.13217 -0.21265,0.1507 -0.30696,0.12506 -0.0319,-0.009 -0.0773,-0.0494 -0.25424,-0.22531 -0.17769,-0.17671 -0.21826,-0.22199 -0.23048,-0.25786 -0.0325,-0.0954 -0.0174,-0.13384 0.12247,-0.31161 l 0.11524,-0.14625 -0.0243,-0.0413 c -0.0281,-0.0479 -0.10079,-0.21995 -0.12609,-0.29765 -0.01,-0.0293 -0.0193,-0.0551 -0.0212,-0.0574 -10e-4,-0.002 -0.0842,-0.0131 -0.18294,-0.0248 -0.16159,-0.0191 -0.18357,-0.0241 -0.22479,-0.0496 -0.0329,-0.0203 -0.0534,-0.0429 -0.0729,-0.0801 l -0.0274,-0.0522 v -0.28165 c 0,-0.30952 0.004,-0.33442 0.0548,-0.39429 0.045,-0.0526 0.0878,-0.0662 0.2713,-0.0873 0.0883,-0.0102 0.16205,-0.0199 0.16382,-0.0217 0.001,-0.002 0.0195,-0.0539 0.0393,-0.11524 0.001,-0.004 0.004,-0.009 0.005,-0.0134 -0.22469,-0.10882 -0.45388,-0.21319 -0.69298,-0.30747 -0.97649,-0.38503 -1.66003,-0.5208 -2.60191,-0.5178 -1.07341,0.004 -2.045728,0.23735 -3.070098,0.73897 -1.85352,0.90766 -3.79971,2.73208 -5.18883,4.86431 -0.20072,0.30809 -0.37584,0.5607 -0.38964,0.5612 -0.0138,5.6e-4 -0.17598,-0.22894 -0.36018,-0.51004 -0.69904,-1.06678 -1.8702,-2.38389 -2.84737,-3.20291 -0.87595,-0.73418 -1.94457,-1.38105 -2.84375,-1.72134 -1.39156,-0.52663 -2.93873,-0.55902 -4.36666,-0.0915 -2.35169,0.77002 -4.04417,2.51471 -4.86275,5.01313 -0.42554,1.2988 -0.57524,2.33023 -0.57723,3.97702 -0.001,1.14786 0.007,1.26855 0.13333,1.85518 0.12837,0.59672 0.41254,1.49934 0.63458,2.01591 l 0.10232,0.23823 h 5.38675 5.38675 l 0.10181,-0.33849 c 0.87675,-2.91522 1.15346,-3.74923 1.2795,-3.85765 0.18655,-0.16047 0.43617,-0.1507 0.62218,0.0243 0.12995,0.12225 0.24981,0.4773 1.05937,3.14452 0.50196,1.65376 0.92845,3.03636 0.94775,3.07216 0.0193,0.0359 0.31519,-1.00088 0.65784,-2.30373 0.4244,-1.61367 0.65517,-2.40668 0.72347,-2.48668 0.0631,-0.0739 0.17645,-0.12729 0.30592,-0.14469 0.17691,-0.0237 0.22842,-0.008 0.36535,0.11575 l 0.15917,0.14367 0.53692,3.67058 v 5.3e-4 c 0.29529,2.01906 0.55244,3.63102 0.57154,3.58273 0.0191,-0.0483 0.387,-3.21109 0.81752,-7.02852 0.43052,-3.81742 0.79627,-7.03057 0.81287,-7.14065 0.0666,-0.44052 0.50314,-0.62232 0.81494,-0.339 l 0.15193,0.13798 0.86299,5.54798 c 0.47471,3.05141 0.87906,5.51952 0.89866,5.48442 0.0196,-0.0351 0.420048,-1.00782 0.889858,-2.16162 0.46979,-1.15381 0.90229,-2.14916 0.96118,-2.21176 0.22255,-0.23689 0.61307,-0.17565 0.76482,0.11989 0.0387,0.0753 0.41316,1.02744 0.8325,2.11616 0.41933,1.08873 0.76759,1.9856 0.7736,1.99161 0.006,0.006 0.19787,-0.49449 0.42685,-1.1126 0.27999,-0.75579 0.45648,-1.16118 0.53898,-1.23868 0.11768,-0.1106 0.16924,-0.11711 1.25936,-0.15451 0.62506,-0.0215 1.47388,-0.0553 1.88618,-0.0755 l 0.7493,-0.0367 0.0667,-0.22531 c 0.19252,-0.65329 0.2785,-1.37637 0.2775,-2.33062 -0.001,-1.06775 -0.0612,-1.71437 -0.24391,-2.62619 -0.29401,-1.46754 -0.85424,-2.73516 -1.65881,-3.79047 z m -1.01027,-1.09813 c -0.33368,-0.30073 -0.69484,-0.57627 -1.08314,-0.82579 -10e-4,0.0162 -0.005,0.0316 -0.005,0.0481 -0.001,0.32615 0.17262,0.60753 0.46303,0.74725 0.17586,0.0846 0.371,0.10439 0.55758,0.0568 0.0236,-0.006 0.0448,-0.0182 0.0677,-0.0264 z m 3.34295,-0.68781 c -0.049,-0.003 -0.11961,10e-4 -0.23307,0.0114 -0.19994,0.0179 -0.24218,0.0325 -0.28938,0.0997 -0.0347,0.0488 -0.0443,0.0968 -0.045,0.21911 -5.3e-4,0.0941 -2.7e-4,0.0947 -0.0269,0.10542 -0.082,0.0331 -0.21575,0.10042 -0.27545,0.13901 l -0.0682,0.0444 -0.0987,-0.0631 c -0.1152,-0.0733 -0.13894,-0.0832 -0.19533,-0.0832 -0.0773,0 -0.12695,0.0377 -0.26304,0.19895 -0.14292,0.16936 -0.16362,0.2066 -0.1576,0.28681 0.005,0.0658 0.0191,0.0888 0.12608,0.20515 l 0.0749,0.0811 -0.0326,0.0873 c -0.0179,0.0478 -0.0421,0.12811 -0.0543,0.1788 -0.0121,0.0507 -0.0239,0.0953 -0.0279,0.0992 -0.003,0.004 -0.0602,0.0181 -0.12609,0.0315 -0.12705,0.0259 -0.17127,0.0461 -0.20877,0.0956 -0.0425,0.0563 -0.0465,0.0961 -0.03,0.29042 0.0194,0.23064 0.0211,0.24037 0.0532,0.29094 0.0192,0.0303 0.0428,0.0507 0.0791,0.0687 0.0458,0.0228 0.0635,0.0258 0.15865,0.0269 0.16164,0.002 0.15047,-0.005 0.21807,0.12971 0.0321,0.064 0.0689,0.13421 0.0822,0.15554 l 0.0243,0.0388 -0.077,0.11627 c -0.0558,0.0843 -0.0782,0.12818 -0.0832,0.15969 -0.007,0.0488 0.008,0.1176 0.0331,0.15244 0.009,0.0125 0.0868,0.0819 0.17209,0.154 0.12101,0.1023 0.16558,0.13453 0.20308,0.14572 0.0908,0.0271 0.14751,0.003 0.27389,-0.11575 0.0489,-0.0459 0.0943,-0.0837 0.10025,-0.0837 0.007,0 0.05,0.0151 0.0961,0.0336 0.0462,0.0185 0.12025,0.0426 0.16486,0.0532 0.0446,0.0106 0.0833,0.0211 0.0853,0.0238 0.002,0.002 0.0174,0.0649 0.0326,0.13849 0.0318,0.153 0.055,0.19632 0.12453,0.23306 h 5.3e-4 c 0.0519,0.0274 0.10005,0.0284 0.32557,0.008 0.17108,-0.0157 0.19615,-0.0213 0.24545,-0.0589 0.0598,-0.0455 0.074,-0.0895 0.078,-0.23667 0.002,-0.072 0.007,-0.13461 0.0109,-0.13901 0.004,-0.004 0.0494,-0.0265 0.10077,-0.0496 0.0513,-0.0231 0.12858,-0.0627 0.17158,-0.0879 l 0.078,-0.046 0.11214,0.0739 c 0.14033,0.092 0.19594,0.10357 0.28783,0.0599 0.0376,-0.0178 0.28543,-0.30355 0.31213,-0.35967 0.0182,-0.0397 0.019,-0.12073 0.001,-0.16382 -0.007,-0.0178 -0.0532,-0.0754 -0.10181,-0.12815 -0.0593,-0.0644 -0.0862,-0.10089 -0.0822,-0.11059 0.0346,-0.0808 0.0765,-0.20215 0.0935,-0.27182 l 0.0207,-0.0853 0.10698,-0.0212 c 0.13739,-0.0274 0.1731,-0.0424 0.2129,-0.0889 0.0557,-0.0648 0.0589,-0.0941 0.0372,-0.33021 -0.0199,-0.21809 -0.0261,-0.2431 -0.076,-0.293 -0.0516,-0.0516 -0.0764,-0.0586 -0.21549,-0.0625 -0.12893,-0.004 -0.12904,-0.004 -0.14004,-0.0295 -0.037,-0.0886 -0.091,-0.19978 -0.12506,-0.25632 l -0.0398,-0.0656 0.0713,-0.10749 c 0.0641,-0.0969 0.0709,-0.11249 0.0749,-0.16381 0.007,-0.0939 -0.0137,-0.12342 -0.18965,-0.27285 -0.0833,-0.0708 -0.16661,-0.13665 -0.18552,-0.14625 -0.0442,-0.0226 -0.1366,-0.0233 -0.1788,-0.001 -0.017,0.009 -0.0684,0.0502 -0.1142,0.092 l -0.0837,0.076 -0.0863,-0.0346 c -0.0476,-0.0193 -0.13457,-0.0472 -0.19327,-0.062 l -0.10696,-0.0274 -0.0243,-0.11472 c -0.0281,-0.13203 -0.0474,-0.17102 -0.1049,-0.21136 -0.0268,-0.0188 -0.0543,-0.029 -0.10335,-0.032 z m -0.0444,1.20044 c 0.11606,1.8e-4 0.19613,0.0189 0.30178,0.0698 0.0678,0.0326 0.0978,0.0555 0.17054,0.12816 0.0729,0.073 0.0959,0.10292 0.12918,0.17209 0.0549,0.11469 0.0716,0.19945 0.0656,0.33331 -0.008,0.18147 -0.064,0.3069 -0.19482,0.4377 -0.0841,0.0841 -0.16287,0.13376 -0.26769,0.16898 -0.0928,0.0313 -0.27929,0.036 -0.3762,0.01 -0.29558,-0.08 -0.49767,-0.34266 -0.49867,-0.65112 -0.002,-0.37145 0.29651,-0.66923 0.67025,-0.6687 z m -2.78124,1.04955 c 0.11918,0.003 0.14491,0.007 0.17984,0.0253 0.0741,0.0387 0.10666,0.098 0.11628,0.21188 0.004,0.0393 0.0107,0.0755 0.0165,0.0801 0.006,0.005 0.0365,0.0161 0.0682,0.0258 0.0316,0.01 0.0953,0.037 0.14106,0.0599 0.0458,0.023 0.0859,0.0413 0.0894,0.0413 0.004,1e-5 0.0288,-0.0175 0.0563,-0.0393 0.1488,-0.11763 0.23663,-0.10333 0.39842,0.0656 0.0975,0.10186 0.12558,0.14999 0.12558,0.21652 0,0.0547 -0.024,0.10637 -0.0811,0.17467 -0.0246,0.0293 -0.045,0.0556 -0.045,0.0589 0,0.003 0.0151,0.0386 0.0331,0.078 0.018,0.0394 0.0422,0.10218 0.0543,0.13952 0.0122,0.0374 0.0229,0.0687 0.0238,0.0698 8e-4,9.8e-4 0.0341,0.007 0.0739,0.0129 0.10152,0.0148 0.14826,0.034 0.18758,0.0775 0.048,0.0531 0.0565,0.0962 0.0527,0.26097 -0.004,0.12943 -0.005,0.14541 -0.0274,0.185 -0.0399,0.0711 -0.0883,0.0977 -0.19999,0.11059 l -0.0951,0.0114 -0.0269,0.0724 c -0.0146,0.04 -0.0434,0.10601 -0.0641,0.14676 l -0.0377,0.0739 0.0563,0.0744 c 0.11564,0.15257 0.10305,0.2304 -0.062,0.39119 -0.10006,0.0975 -0.15275,0.12816 -0.22066,0.12816 -0.0559,0 -0.10608,-0.0235 -0.18345,-0.0858 -0.034,-0.0274 -0.0636,-0.0496 -0.0656,-0.0496 -10e-4,0 -0.0259,0.0112 -0.0527,0.0248 -0.0268,0.0135 -0.0928,0.0391 -0.14728,0.0574 l -0.0992,0.0336 -0.0124,0.0941 c -0.0152,0.12082 -0.0427,0.17008 -0.11782,0.20928 -0.0499,0.026 -0.0572,0.027 -0.18914,0.0264 -0.0892,-3.4e-4 -0.15278,-0.006 -0.1819,-0.0145 h -5.3e-4 c -0.0549,-0.0169 -0.11933,-0.0828 -0.13332,-0.13642 -0.006,-0.0205 -0.0125,-0.0733 -0.016,-0.11679 l -0.006,-0.0791 -0.0739,-0.0258 c -0.0408,-0.0144 -0.10351,-0.0417 -0.13953,-0.0605 l -0.0656,-0.0341 -0.0713,0.0543 c -0.0833,0.0637 -0.1266,0.0837 -0.18087,0.0837 -0.0655,0 -0.1069,-0.0249 -0.21187,-0.12867 -0.11625,-0.11501 -0.13746,-0.14979 -0.13746,-0.22428 0,-0.0707 0.0101,-0.0928 0.078,-0.17828 0.0319,-0.0399 0.0579,-0.0757 0.0579,-0.0796 0,-0.004 -0.0148,-0.0396 -0.0331,-0.0791 -0.018,-0.0394 -0.0409,-0.0969 -0.0506,-0.12816 -0.01,-0.0313 -0.0225,-0.0586 -0.0279,-0.0605 -0.006,-0.002 -0.0531,-0.01 -0.10594,-0.0176 -0.11285,-0.0164 -0.16043,-0.0435 -0.19637,-0.11162 -0.0209,-0.0397 -0.0229,-0.054 -0.0227,-0.19896 1.7e-4,-0.13123 0.004,-0.1622 0.0186,-0.19482 0.0382,-0.0826 0.10096,-0.11784 0.22841,-0.12764 l 0.0832,-0.007 0.0155,-0.0543 c 0.009,-0.0299 0.0353,-0.0966 0.0594,-0.14831 l 0.0434,-0.094 -0.0496,-0.0625 c -0.0606,-0.0762 -0.0789,-0.11752 -0.0785,-0.17828 2.7e-4,-0.0729 0.027,-0.11508 0.14263,-0.22738 0.11186,-0.1087 0.13999,-0.12442 0.2217,-0.12454 0.0458,-7e-5 0.0997,0.0263 0.17363,0.0853 l 0.0522,0.0419 0.0811,-0.0388 c 0.0444,-0.0214 0.11102,-0.0487 0.14832,-0.0605 0.0374,-0.0118 0.0727,-0.0274 0.0785,-0.0346 0.006,-0.007 0.0141,-0.0415 0.0176,-0.0765 0.009,-0.0858 0.0299,-0.13415 0.0755,-0.17311 0.0561,-0.0481 0.10117,-0.0573 0.26199,-0.0527 z m -0.0258,0.97255 c -0.0279,-3.9e-4 -0.0564,0.001 -0.0847,0.005 -0.38114,0.0557 -0.58736,0.45905 -0.40876,0.79892 0.0677,0.12887 0.20806,0.2389 0.3483,0.27285 0.0761,0.0184 0.19016,0.0186 0.26097,5.3e-4 0.1031,-0.0263 0.17827,-0.0697 0.25786,-0.14934 0.17362,-0.17363 0.21217,-0.41817 0.0997,-0.632 -0.0956,-0.18195 -0.27768,-0.29326 -0.47336,-0.29611 z m -9.179798,3.43442 c -0.0198,0.0786 -0.39948,3.35533 -0.84336,7.28173 -0.44388,3.92637 -0.82799,7.17781 -0.85369,7.22591 -0.12374,0.23124 -0.51443,0.32089 -0.73277,0.16795 -0.0592,-0.0414 -0.13045,-0.14873 -0.15865,-0.23823 -0.0281,-0.0895 -0.32433,-2.04554 -0.65836,-4.34702 -0.33403,-2.30148 -0.62347,-4.22626 -0.64337,-4.27726 -0.0236,-0.0605 -0.21632,0.59277 -0.55449,1.87896 -0.28517,1.0846 -0.54773,2.02973 -0.58343,2.10013 -0.0689,0.13599 -0.26238,0.24804 -0.42839,0.24804 -0.16796,0 -0.3788,-0.13765 -0.4377,-0.28577 -0.0306,-0.0771 -0.47503,-1.5159 -0.98806,-3.19722 -0.51303,-1.68132 -0.93812,-3.06203 -0.94412,-3.06803 -0.006,-0.006 -0.18748,0.56908 -0.4036,1.27796 -0.47068,1.54393 -0.51083,1.65039 -0.64802,1.72909 -0.0815,0.0466 -1.38577,0.0666 -5.50767,0.0858 l -5.40122,0.0253 0.2713,0.45941 c 2.07323,3.50843 6.02314,7.35384 11.45821,11.15488 0.70862,0.49559 2.06098,1.38522 2.93161,1.92856 0.13782,0.0859 0.28694,0.15768 0.33124,0.15968 0.1098,0.005 1.84495,-1.09775 3.12694,-1.98696 6.086048,-4.22132 10.363318,-8.55763 12.199768,-12.36721 0.15946,-0.33075 0.30638,-0.65293 0.32608,-0.71623 l 0.0357,-0.11524 -1.04387,0.0336 c -0.57419,0.0185 -1.22179,0.0478 -1.43918,0.0651 l -0.39533,0.0315 -0.58962,1.57665 c -0.65844,1.76117 -0.70443,1.83879 -1.06351,1.79059 -0.10741,-0.0144 -0.23638,-0.0633 -0.28628,-0.10852 -0.0499,-0.0452 -0.45851,-1.04039 -0.90848,-2.21124 -0.54861,-1.42749 -0.82986,-2.09915 -0.85266,-2.03915 -0.0188,0.0492 -0.46533,1.14936 -0.9927,2.44481 -0.67979,1.66988 -0.99592,2.38817 -1.08572,2.46807 -0.179108,0.15944 -0.429178,0.14968 -0.623738,-0.0248 l -0.15348,-0.13798 -0.71158,-4.57801 c -0.48665,-3.13084 -0.72306,-4.53256 -0.74776,-4.43488 z"
         style="fill:#f65a4e;fill-opacity:1;stroke-width:0.05011389" />
      <text
         id="text855-5"
         y="169.27057"
         x="72.939156"
         style="font-style:normal;font-variant:normal;font-weight:normal;font-stretch:normal;font-size:10.58333302px;line-height:1.25;font-family:Raleway;-inkscape-font-specification:Raleway;letter-spacing:0px;word-spacing:0px;fill:#3baed7;fill-opacity:1;stroke:none;stroke-width:0.26458332"
         xml:space="preserve"><tspan
           style="font-style:normal;font-variant:normal;font-weight:bold;font-stretch:normal;font-family:Monserrate;-inkscape-font-specification:'Monserrate Bold';fill:#3baed7;fill-opacity:1;stroke-width:0.26458332"
           y="169.27057"
           x="72.939156"
           id="tspan853-7"
           sodipodi:role="line">Care <tspan
   id="tspan857-8"
   style="fill:#3baed7;fill-opacity:1;stroke-width:0.26458332" /></tspan></text>
      <text
         id="text4594-9"
         y="169.69322"
         x="101.04359"
         style="font-style:normal;font-variant:normal;font-weight:normal;font-stretch:normal;font-size:10.58333302px;line-height:1.25;font-family:Raleway;-inkscape-font-specification:Raleway;letter-spacing:0px;word-spacing:0px;fill:#f65a4e;fill-opacity:1;stroke:none;stroke-width:0.26458332"
         xml:space="preserve"><tspan
           style="font-style:normal;font-variant:normal;font-weight:bold;font-stretch:normal;font-family:Monserrate;-inkscape-font-specification:'Monserrate Bold';fill:#f65a4e;fill-opacity:1;stroke-width:0.26458332"
           y="169.69322"
           x="101.04359"
           id="tspan4592-1"
           sodipodi:role="line">!T</tspan></text>
    </g>
  </g>
</svg>
